<svg height="512" viewBox="0 0 128 128" width="512" xmlns="http://www.w3.org/2000/svg" xmlns:xlink="http://www.w3.org/1999/xlink"><linearGradient id="a" gradientUnits="userSpaceOnUse" x1="118.081" x2="34.537" y1="109.701" y2="26.158"><stop offset="0" stop-color="#f57412"/><stop offset="1" stop-color="#ffce31"/></linearGradient><path d="m104.841 114.954a30.954 30.954 0 0 1 .717 6.546 1.75 1.75 0 0 1 -1.75 1.75h-68.558a1.748 1.748 0 0 1 -1.691-1.3q-1.885-7.105-3.015-13.852a52.475 52.475 0 0 0 -5.744-12.634c-2.964-5.083-5.778-9.912-6.97-20.186-1.941 1.835-3.83 3.879-4.23 4.97a1.75 1.75 0 0 1 -3.394-.569c-.12-7.436 3.59-19.273 9.356-26.806a35.117 35.117 0 0 0 -4.59.827 1.75 1.75 0 0 1 -1.859-2.691c5.182-7.537 17.247-16.042 28.96-20.723a46.225 46.225 0 0 0 -6.306-1.381 1.75 1.75 0 0 1 -.926-3.05c2.614-2.3 7.692-3.76 15.093-4.349a1.75 1.75 0 0 1 .278 3.488 44.57 44.57 0 0 0 -8.858 1.47c3.618.925 6.615 2.04 6.8 2.107a1.75 1.75 0 0 1 -.1 3.313c-10.434 3.18-22.425 10.535-29.1 17.536a19.184 19.184 0 0 1 4.839-.076 1.75 1.75 0 0 1 .92 2.993c-5.036 4.8-8.991 13.981-10.422 21.493 1.655-1.658 3.3-3.05 3.845-3.506a1.75 1.75 0 0 1 2.864 1.22c.859 11.919 3.624 16.663 6.826 22.157q.637 1.092 1.279 2.223a91.832 91.832 0 0 1 1.547-25.318 1.75 1.75 0 0 1 3.424.727c-2.281 10.74-2.3 22.831-.089 36.069v.015q1.006 6.013 2.619 12.333h65.394a27.931 27.931 0 0 0 -.577-4.053 1.75 1.75 0 0 1 3.42-.743zm11.274-35.818a11.092 11.092 0 0 1 -4.321 8.407l-.276.245c-4.881 4.493-16.957.283-24.877-3.822 1.261 1.91 2.876 4.021 4.611 6.29 1.278 1.671 2.6 3.4 3.925 5.231a1.75 1.75 0 1 1 -2.836 2.051c-1.3-1.8-2.6-3.5-3.868-5.155-3.631-4.746-6.767-8.846-7.67-12.458a1.749 1.749 0 0 1 2.697-1.863c7.358 5.092 22.081 10.438 25.652 7.15.1-.088.211-.19.341-.3a7.69 7.69 0 0 0 3.127-5.826c.063-4.221-3.443-9.743-10.14-15.968a1.757 1.757 0 0 1 -.539-1.017c-1.266-8.276-4.335-14.151-7.988-18.32a1.713 1.713 0 0 1 -.374-.406 30.84 30.84 0 0 0 -14.772-8.9 1.753 1.753 0 0 1 -.552-.144 24.482 24.482 0 0 0 -3.944-.691 1.754 1.754 0 0 1 -1.633-1.676c-.079-1.971-1.555-4.577-3.434-7.11l-.044-.054a61.914 61.914 0 0 0 -5.729-6.535c-4.663 6.957-4.721 16.2-4.721 16.613a1.748 1.748 0 0 1 -1.065 1.61c-6.2 2.639-15.369 10.8-20.781 25.119a1.75 1.75 0 0 1 -3.273-1.239c5.515-14.596 14.869-23.306 21.649-26.63.157-3.31 1.094-12.5 6.617-19.223a1.75 1.75 0 0 1 2.536-.18 65.872 65.872 0 0 1 7.11 7.758 94.316 94.316 0 0 1 14.028 2.649l22.8-19.57a1.75 1.75 0 0 1 2.763 1.982l-14.09 34.973a38.121 38.121 0 0 1 8.256 18.839c7.256 6.849 10.893 12.96 10.815 18.17zm-26.058-53.636 7.688 5.518 2.8-6.938-4.807-3.453zm15.149-13-6.74 5.785 3.42 2.457zm-29.239 17.828c.65.105 1.5.268 2.5.511l3.873-3.324c-2.5-.6-5.266-1.125-8.2-1.551a16.3 16.3 0 0 1 1.827 4.364zm18.433 9.006 2-4.969-9.077-6.515-4.889 4.2a35.2 35.2 0 0 1 11.966 7.284zm6.143 70.14a1.731 1.731 0 0 0 .731-.161 1.75 1.75 0 0 0 .858-2.321c-.651-1.415-1.409-2.874-2.254-4.338a1.749 1.749 0 0 0 -3.031 1.748c.791 1.372 1.5 2.736 2.1 4.053a1.749 1.749 0 0 0 1.592 1.019zm-63.014-33.463a1.759 1.759 0 0 0 -1.961 1.51 93.309 93.309 0 0 0 -.351 19.534 1.75 1.75 0 0 0 1.742 1.608q.072 0 .144-.006a1.75 1.75 0 0 0 1.6-1.886 89.848 89.848 0 0 1 .334-18.8 1.75 1.75 0 0 0 -1.508-1.96zm51.024-19.223a1.6 1.6 0 0 0 .182.01 1.75 1.75 0 0 0 .179-3.49 18.03 18.03 0 0 1 -11.263-6.508 1.751 1.751 0 1 0 -2.781 2.127c2.577 3.373 7.958 7.265 13.683 7.861z" fill="url(#a)"/></svg>